<svg id="a491f60e-d2a6-42bc-9d53-3ff341c98b38" data-name="Layer 6" xmlns="http://www.w3.org/2000/svg" viewBox="0 0 684.66376 152.87319">
  <defs>
    <style>
      .e448b03c-ac3e-4555-ae38-b83a70ffceea {
        fill: #ffe4bd;
      }

      .ada80a33-c565-4176-b916-37b51540e030 {
        fill: #c00;
      }

      .f40d0c1e-7342-455c-836d-26a6ddf5b465 {
        fill: #6c3;
      }

      .af07a145-728d-4d1b-9634-8740705f6311 {
        fill: #fc3;
      }

      .b8b90ba4-5ec5-40d5-86c0-c6ef37ac8ed8 {
        fill: #fff;
      }
    </style>
  </defs>
  <g id="bd9b4243-e9d7-463a-965e-08362395c35c" data-name="Primary Logo">
    <g id="aa2b30b6-1ada-4db0-8e85-21a810d25caf" data-name="Icon">
      <g>
        <circle class="e448b03c-ac3e-4555-ae38-b83a70ffceea" cx="51.54676" cy="101.32723" r="49.78431"/>
        <path d="M58.88861,217.355A51.546,51.546,0,1,1,110.434,165.80921,51.60449,51.60449,0,0,1,58.88861,217.355Zm0-99.56871a48.02268,48.02268,0,1,0,48.022,48.02289A48.07719,48.07719,0,0,0,58.88861,117.78632Z" transform="translate(-7.3415 -64.48183)"/>
      </g>
      <g>
        <path class="ada80a33-c565-4176-b916-37b51540e030" d="M58.88818,116.02844v49.785a49.77979,49.77979,0,0,1-49.78543-49.785Z" transform="translate(-7.3415 -64.48183)"/>
        <path d="M60.64942,167.57519H58.88775A51.605,51.605,0,0,1,7.3415,116.02851v-1.76168H60.64942Zm-49.75274-49.785A48.08728,48.08728,0,0,0,57.12607,164.02V117.79019Z" transform="translate(-7.3415 -64.48183)"/>
      </g>
      <g>
        <path class="f40d0c1e-7342-455c-836d-26a6ddf5b465" d="M1.76245,1.76168H51.54676a0,0,0,0,1,0,0V51.546a0,0,0,0,1,0,0H2.56245a.8.8,0,0,1-.8-.8V1.76168A0,0,0,0,1,1.76245,1.76168Z"/>
        <path d="M60.65028,117.78933H9.80854a2.46883,2.46883,0,0,1-2.46618-2.46618V64.48183H60.65028ZM10.86571,114.266H57.12693V68.00519H10.86571Z" transform="translate(-7.3415 -64.48183)"/>
      </g>
      <g>
        <path class="af07a145-728d-4d1b-9634-8740705f6311" d="M51.54676,1.76168h49.78431a0,0,0,0,1,0,0V50.746a.8.8,0,0,1-.8.8H51.54676a0,0,0,0,1,0,0V1.76168A0,0,0,0,1,51.54676,1.76168Z"/>
        <path d="M107.96782,117.78933H57.12693V64.48183H110.434v50.84132A2.46882,2.46882,0,0,1,107.96782,117.78933ZM60.65028,114.266h46.26036V68.00519H60.65028Z" transform="translate(-7.3415 -64.48183)"/>
      </g>
      <g>
        <path class="b8b90ba4-5ec5-40d5-86c0-c6ef37ac8ed8" d="M108.67275,116.02844a49.78484,49.78484,0,0,1-49.78457,49.785v-49.785Z" transform="translate(-7.3415 -64.48183)"/>
        <path d="M58.88775,167.57519H57.12607V114.26683H110.434v1.76168A51.60494,51.60494,0,0,1,58.88775,167.57519Zm1.76167-49.785V164.02a48.08728,48.08728,0,0,0,46.22939-46.22982Z" transform="translate(-7.3415 -64.48183)"/>
      </g>
      <rect x="49.78531" y="101.32728" width="3.52335" height="49.78414"/>
    </g>
    <g id="a21285d3-dd4a-4743-885d-67219598c884" data-name="Reformed Life">
      <g>
        <path d="M157.03315,123.27419l2.63689.13475q1.28342,0,1.28408-1.4862V88.18617a1.579,1.579,0,0,0-.37188-1.04829,1.22616,1.22616,0,0,0-1.11566-.37189l-2.43343.13475V84.87288h15.211q7.50442,0,10.88576,2.53583,3.37932,2.53449,3.38067,8.21384a8.69439,8.69439,0,0,1-2.265,5.98387,12.06259,12.06259,0,0,1-5.98387,3.54909,7.58371,7.58371,0,0,1,4.2255,1.42017,10.90016,10.90016,0,0,1,3.54909,4.12309,13.33379,13.33379,0,0,1,1.42017,6.28839,17.49488,17.49488,0,0,0,.50663,4.12443q.5073,2.0959,1.45386,2.23a2.95153,2.95153,0,0,0,.94723.13609,2.59118,2.59118,0,0,0,1.28409-.27083v2.02786h-9.19476a11.71129,11.71129,0,0,1-.94588-4.46129q-.13744-1.75838-.13609-2.56952v-2.23132q0-5.071-3.27826-7.57247a12.8295,12.8295,0,0,0-8.01173-2.5008h-2.84035v16.02346q0,1.48753,1.3528,1.4862l3.3133-.13475v1.96049H157.03315Zm16.49639-19.20065a5.85182,5.85182,0,0,0,4.86687-2.23132,9.81514,9.81514,0,0,0,1.75837-6.21967q0-4.66474-1.9268-6.76-1.92613-2.09591-5.98387-2.09658H168.0523c-.54031,0-.81114.22637-.81114.67641v16.63114Z" transform="translate(-7.3415 -64.48183)"/>
        <path d="M217.50781,99.57721q3.27826,3.41569,3.41435,9.36453v1.96049H201.45067q0,6.15229,2.13026,9.43056a7.25563,7.25563,0,0,0,6.3881,3.347,9.4764,9.4764,0,0,0,5.713-1.68966,10.03706,10.03706,0,0,0,3.41435-4.19181l1.55492,1.14935a10.4264,10.4264,0,0,1-4.56369,5.104,13.845,13.845,0,0,1-7.0645,1.85943q-13.72544,0-13.72476-14.80674,0-7.367,3.448-11.15524,3.448-3.78557,10.142-3.78489A11.41216,11.41216,0,0,1,217.50781,99.57721Zm-14.19771,1.52123a16.14185,16.14185,0,0,0-1.79206,8.11413h12.30459a1.16529,1.16529,0,0,0,1.0146-.47429,3.22419,3.22419,0,0,0,.33821-1.757q0-4.59806-1.45386-6.795-1.45521-2.197-4.83318-2.19763A5.99017,5.99017,0,0,0,203.3101,101.09844Z" transform="translate(-7.3415 -64.48183)"/>
        <path d="M225.65293,123.47765l2.50215.13474q.87717,0,.87852-1.28408v-23.798h-2.6369v-1.691h2.6369V92.378q0-16.90062,11.76427-16.902a8.37693,8.37693,0,0,1,5.577,2.02786,6.24092,6.24092,0,0,1,2.39975,4.93558,3.50388,3.50388,0,0,1-.81115,2.36606,3.02431,3.02431,0,0,1-2.43343.94588q-2.36673,0-2.36606-1.96049a4.43285,4.43285,0,0,1,.26949-1.35145,4.20032,4.20032,0,0,0,.3382-1.62229,3.69247,3.69247,0,0,0-.87852-2.50215,3.21594,3.21594,0,0,0-2.56952-1.0146,5.7282,5.7282,0,0,0-4.1918,1.75837q-1.75839,1.75838-1.757,6.35576,0,1.89177.20211,4.46129.06669.9479.13609,2.23132.06669,1.28542.06737,2.77163v1.96049h7.23427v1.691h-7.1669v23.798q0,1.28542.87851,1.28408l4.46264-.13474v1.757H225.65293Z" transform="translate(-7.3415 -64.48183)"/>
        <path d="M249.11277,100.11887q3.448-3.95534,10.142-3.95466,6.69194,0,10.14064,3.95466,3.448,3.95533,3.448,10.85073,0,7.03351-3.448,10.98682-3.448,3.95534-10.14064,3.95466-6.694,0-10.142-3.95466-3.448-3.95533-3.448-10.98682Q245.66473,104.07353,249.11277,100.11887Zm4.42895,20.89032a6.842,6.842,0,0,0,11.42473,0q1.724-3.07413,1.72469-9.90485,0-6.89606-1.72469-10.0059a6.80136,6.80136,0,0,0-11.42473,0q-1.724,3.11051-1.72469,10.0059Q251.817,117.93575,253.54172,121.00919Z" transform="translate(-7.3415 -64.48183)"/>
        <path d="M298.70167,97.65041a5.19746,5.19746,0,0,1,1.45386,3.78623,3.2921,3.2921,0,0,1-.77746,2.36606,2.72252,2.72252,0,0,1-2.06154.8125,3.08694,3.08694,0,0,1-1.72469-.508,1.75821,1.75821,0,0,1-.77746-1.5886,5.91211,5.91211,0,0,1,.27083-1.55492,5.83412,5.83412,0,0,0,.26948-1.48754,1.48123,1.48123,0,0,0-.37189-.97957,1.46362,1.46362,0,0,0-1.183-.44061,4.54292,4.54292,0,0,0-3.65014,1.99552,14.8169,14.8169,0,0,0-2.43343,4.93558,23.83074,23.83074,0,0,0-1.01461,5.64432v11.69691q0,1.28542.87852,1.28408l4.12443-.13474v1.757H277.845v-1.757l2.1626.13474q.87918,0,.87986-1.28408v-22.514q0-1.35213-.87986-1.35146l-2.43343.13474V96.83927h9.533a8.59762,8.59762,0,0,0-.27084,1.31912,12.18871,12.18871,0,0,0-.13474,1.79071v3.31329a14.26378,14.26378,0,0,1,3.48172-5.44221,6.59889,6.59889,0,0,1,4.42895-1.656A5.46264,5.46264,0,0,1,298.70167,97.65041Z" transform="translate(-7.3415 -64.48183)"/>
        <path d="M353.9039,123.47765v1.757H340.72079v-1.757l3.10984.13474a1.14011,1.14011,0,0,0,.87986-1.28408v-15.347a31.33091,31.33091,0,0,0-.30452-5.003,4.88966,4.88966,0,0,0-1.25175-2.70427,4.063,4.063,0,0,0-2.97374-.94723,7.19665,7.19665,0,0,0-5.98387,3.24592,15.104,15.104,0,0,0-2.6032,8.58573v12.16985q0,1.28542.87986,1.28408l3.1772-.13474v1.757H321.791v-1.757l3.10983.13474a1.14032,1.14032,0,0,0,.87851-1.28408V106.84517a27.5581,27.5581,0,0,0-.37188-5.27244,3.90868,3.90868,0,0,0-1.35146-2.46846,5.30386,5.30386,0,0,0-3.07615-.71009,6.73943,6.73943,0,0,0-5.67935,3.10984,15.46123,15.46123,0,0,0-2.56952,8.11413l-.06737,12.71016q0,1.28542.87851,1.28408l3.10984-.13474v1.757H303.46882v-1.757l2.50215.13474a1.14032,1.14032,0,0,0,.87851-1.28408v-22.514a1.843,1.843,0,0,0-.23714-.94589.71767.71767,0,0,0-.64137-.40557l-2.50215.13474V96.83927h9.60033a7.228,7.228,0,0,0-.3382,2.29869v3.71886a9.70355,9.70355,0,0,1,3.58412-4.83452,10.32541,10.32541,0,0,1,6.21967-1.85809A10.00044,10.00044,0,0,1,328.586,97.7865q2.19493,1.623,2.80531,6.0162a10.69234,10.69234,0,0,1,3.81992-5.678,10.27939,10.27939,0,0,1,6.25336-1.96049q4.80016,0,6.92975,2.26366,2.13025,2.2677,2.13026,7.33667v16.56377q0,1.28542.87852,1.28408Z" transform="translate(-7.3415 -64.48183)"/>
        <path d="M379.83085,99.57721q3.27827,3.41569,3.41435,9.36453v1.96049H363.77371q0,6.15229,2.13026,9.43056a7.25563,7.25563,0,0,0,6.3881,3.347,9.4764,9.4764,0,0,0,5.713-1.68966,10.03713,10.03713,0,0,0,3.41435-4.19181l1.55492,1.14935a10.42637,10.42637,0,0,1-4.5637,5.104,13.8449,13.8449,0,0,1-7.06449,1.85943q-13.72543,0-13.72477-14.80674,0-7.367,3.448-11.15524,3.448-3.78557,10.142-3.78489A11.41216,11.41216,0,0,1,379.83085,99.57721Zm-14.19771,1.52123a16.14185,16.14185,0,0,0-1.79206,8.11413h12.30459a1.16529,1.16529,0,0,0,1.0146-.47429,3.22419,3.22419,0,0,0,.33821-1.757q0-4.59806-1.45387-6.795-1.45519-2.197-4.83317-2.19763A5.99017,5.99017,0,0,0,365.63314,101.09844Z" transform="translate(-7.3415 -64.48183)"/>
        <path d="M391.18956,99.9491q3.20954-3.78557,9.56529-3.78489a8.06191,8.06191,0,0,1,5.10536,1.55492,7.48228,7.48228,0,0,1,2.67057,3.98835V78.788q0-1.3501-.87986-1.35145l-3.10983.13474V75.88158h9.87116v46.44673q0,1.28542.87851,1.28408l2.50215-.13474v1.757h-9.73642a4.42549,4.42549,0,0,0,.13609-1.082v-1.4862a10.10954,10.10954,0,0,1,.06737-1.3528,5.89335,5.89335,0,0,0,.06737-.609,7.5896,7.5896,0,0,1-2.6032,3.85361,7.96022,7.96022,0,0,1-4.90055,1.3528q-6.89607,0-9.87116-3.61646-2.97508-3.61578-2.97509-11.19028Q387.97732,103.73736,391.18956,99.9491Zm3.58277,18.8638a7.13045,7.13045,0,0,0,1.99417,4.022,5.946,5.946,0,0,0,4.05707,1.2504q4.12309,0,5.84778-2.70426,1.724-2.70225,1.72334-8.58573V109.955q0-5.67734-1.89312-8.82152a6.25921,6.25921,0,0,0-5.74672-3.14487,5.15328,5.15328,0,0,0-5.104,3.38066q-1.4552,3.38135-1.45386,9.73507A39.95351,39.95351,0,0,0,394.77233,118.8129Z" transform="translate(-7.3415 -64.48183)"/>
        <path d="M437.39644,123.20682l2.90638.20212q1.0146,0,1.0146-1.4862V88.18617a1.57892,1.57892,0,0,0-.37189-1.04829.97952.97952,0,0,0-.91219-.37189l-2.6369.13475V84.87288h14.87411v2.02786l-3.31329-.13475h-.13474a1.08779,1.08779,0,0,0-.87986.40558,1.52753,1.52753,0,0,0-.3382,1.0146v34.27688q0,.8792.81114.87851h7.63984q4.66476,0,7.06584-2.46711,2.39908-2.4678,2.39975-7.20059h1.75838v11.76428q-1.21873-.20414-8.38362-.20346H437.39644Z" transform="translate(-7.3415 -64.48183)"/>
        <path d="M480.32777,122.32831q0,1.28542.87851,1.28408l2.43478-.13474v1.757H471.133v-1.757l2.50215.13474q.87717,0,.87852-1.28408v-22.514q0-1.148-.81115-1.35146l-2.50215.13474V96.83927h9.12739Zm-.71009-39.68675a2.85946,2.85946,0,0,1,1.04829,2.29869,2.94938,2.94938,0,0,1-1.0146,2.40109,4.08834,4.08834,0,0,1-2.70426.84483,3.98306,3.98306,0,0,1-2.63689-.84483,2.95251,2.95251,0,0,1-1.01326-2.40109,2.8999,2.8999,0,0,1,1.01326-2.29869,3.888,3.888,0,0,1,2.63689-.87852A4.02074,4.02074,0,0,1,479.61768,82.64156Z" transform="translate(-7.3415 -64.48183)"/>
        <path d="M488.37183,123.47765l2.50215.13474q.87717,0,.87852-1.28408v-23.798h-2.63689v-1.691h2.63689V92.378q0-16.90062,11.76428-16.902a8.3769,8.3769,0,0,1,5.57694,2.02786,6.24089,6.24089,0,0,1,2.39975,4.93558,3.50387,3.50387,0,0,1-.81114,2.36606,3.02434,3.02434,0,0,1-2.43343.94588q-2.36674,0-2.36606-1.96049a4.43279,4.43279,0,0,1,.26948-1.35145,4.20014,4.20014,0,0,0,.3382-1.62229A3.69247,3.69247,0,0,0,505.612,78.315a3.21593,3.21593,0,0,0-2.56951-1.0146,5.72821,5.72821,0,0,0-4.19181,1.75837q-1.75838,1.75838-1.757,6.35576,0,1.89177.20211,4.46129.06671.9479.13609,2.23132.06671,1.28542.06737,2.77163v1.96049h7.23427v1.691h-7.1669v23.798q0,1.28542.87852,1.28408l4.46263-.13474v1.757H488.37183Z" transform="translate(-7.3415 -64.48183)"/>
        <path d="M530.59172,99.57721q3.27827,3.41569,3.41435,9.36453v1.96049H514.53458q0,6.15229,2.13027,9.43056a7.25561,7.25561,0,0,0,6.38809,3.347,9.47645,9.47645,0,0,0,5.713-1.68966,10.03721,10.03721,0,0,0,3.41435-4.19181l1.55491,1.14935a10.4264,10.4264,0,0,1-4.56369,5.104,13.84493,13.84493,0,0,1-7.0645,1.85943q-13.72543,0-13.72476-14.80674,0-7.367,3.448-11.15524,3.448-3.78557,10.142-3.78489A11.41216,11.41216,0,0,1,530.59172,99.57721Zm-14.1977,1.52123a16.14174,16.14174,0,0,0-1.79206,8.11413h12.30459a1.16531,1.16531,0,0,0,1.0146-.47429,3.2242,3.2242,0,0,0,.3382-1.757q0-4.59806-1.45386-6.795-1.45521-2.197-4.83318-2.19763A5.99017,5.99017,0,0,0,516.394,101.09844Z" transform="translate(-7.3415 -64.48183)"/>
      </g>
      <g>
        <path d="M162.06978,154.74576q5.37417-5.5783,14.9078-5.5783a17.93133,17.93133,0,0,1,4.15812.40557q1.65529.40625,4.0894,1.21806,1.68966.60837,2.94141.94589a11.00058,11.00058,0,0,0,2.87269.3382,40.40944,40.40944,0,0,0-.26949,5.07032q0,1.42084.06738,2.53584a3.10406,3.10406,0,0,0,.20211,1.2504h-1.62229a11.917,11.917,0,0,0-2.5008-5.07032,14.03264,14.03264,0,0,0-4.59738-3.6515,12.5632,12.5632,0,0,0-5.67935-1.35145,10.62616,10.62616,0,0,0-6.92976,2.39974,15.18481,15.18481,0,0,0-4.53,6.795,29.984,29.984,0,0,0-1.58861,10.208,26.97723,26.97723,0,0,0,1.656,9.7701,15.04361,15.04361,0,0,0,4.69843,6.65892,11.13318,11.13318,0,0,0,7.03216,2.36606,12.80682,12.80682,0,0,0,8.24752-2.87269,12.43631,12.43631,0,0,0,4.53-7.26795h1.89312a45.71312,45.71312,0,0,0-.40557,5.74672,20.1237,20.1237,0,0,0,.20211,3.17721h-.40557a9.82,9.82,0,0,0-2.23.30451q-1.28544.30318-2.0629.574a9.64126,9.64126,0,0,1-1.11565.3382,45.51714,45.51714,0,0,1-4.66475,1.35281,19.67469,19.67469,0,0,1-4.32655.47294,21.41649,21.41649,0,0,1-10.58125-2.50215,17.04061,17.04061,0,0,1-6.92975-7.13186,23.31582,23.31582,0,0,1-2.43343-10.98682Q156.695,160.32338,162.06978,154.74576Z" transform="translate(-7.3415 -64.48183)"/>
        <path d="M200.50479,165.08986q3.448-3.95533,10.142-3.95466,6.69193,0,10.14064,3.95466,3.448,3.95534,3.448,10.85073,0,7.0335-3.448,10.98682-3.448,3.95533-10.14064,3.95466-6.694,0-10.142-3.95466-3.448-3.95534-3.448-10.98682Q197.05675,169.04452,200.50479,165.08986Zm4.42895,20.89032a6.842,6.842,0,0,0,11.42473,0q1.724-3.07413,1.72469-9.90485,0-6.89607-1.72469-10.0059a6.80136,6.80136,0,0,0-11.42473,0q-1.724,3.1105-1.72469,10.0059Q203.20905,182.90672,204.93374,185.98018Z" transform="translate(-7.3415 -64.48183)"/>
        <path d="M279.4013,188.44864v1.757H266.2182v-1.757l3.10983.13474a1.14012,1.14012,0,0,0,.87986-1.28409V171.95224a31.33113,31.33113,0,0,0-.30451-5.00295,4.88973,4.88973,0,0,0-1.25175-2.70426,4.06307,4.06307,0,0,0-2.97375-.94723,7.19664,7.19664,0,0,0-5.98387,3.24592,15.104,15.104,0,0,0-2.6032,8.58573v12.16984q0,1.28544.87986,1.28409l3.17721-.13474v1.757H247.28837v-1.757l3.10983.13474a1.14033,1.14033,0,0,0,.87852-1.28409V171.81615a27.55788,27.55788,0,0,0-.37189-5.27243,3.90868,3.90868,0,0,0-1.35146-2.46846,5.30376,5.30376,0,0,0-3.07615-.71009,6.73947,6.73947,0,0,0-5.67935,3.10983,15.46132,15.46132,0,0,0-2.56952,8.11413l-.06737,12.71016q0,1.28544.87852,1.28409l3.10983-.13474v1.757H228.96622v-1.757l2.50215.13474a1.14033,1.14033,0,0,0,.87852-1.28409v-22.514a1.8429,1.8429,0,0,0-.23715-.94588.71764.71764,0,0,0-.64137-.40557l-2.50215.13474v-1.75838h9.60033a7.22826,7.22826,0,0,0-.3382,2.29869v3.71887a9.7035,9.7035,0,0,1,3.58413-4.83453,10.32542,10.32542,0,0,1,6.21966-1.85808,10.00051,10.00051,0,0,1,6.05124,1.62228q2.19494,1.623,2.80532,6.01621a10.69228,10.69228,0,0,1,3.81992-5.678,10.27928,10.27928,0,0,1,6.25335-1.96049q4.80016,0,6.92975,2.26365,2.13027,2.2677,2.13027,7.33668v16.56376q0,1.28544.87851,1.28409Z" transform="translate(-7.3415 -64.48183)"/>
        <path d="M333.55524,188.44864v1.757h-13.1831v-1.757l3.10983.13474a1.14012,1.14012,0,0,0,.87986-1.28409V171.95224a31.33113,31.33113,0,0,0-.30451-5.00295,4.88966,4.88966,0,0,0-1.25175-2.70426,4.06307,4.06307,0,0,0-2.97375-.94723,7.19661,7.19661,0,0,0-5.98386,3.24592,15.104,15.104,0,0,0-2.60321,8.58573v12.16984q0,1.28544.87986,1.28409l3.17721-.13474v1.757H301.44231v-1.757l3.10983.13474a1.14033,1.14033,0,0,0,.87852-1.28409V171.81615a27.55788,27.55788,0,0,0-.37189-5.27243,3.90864,3.90864,0,0,0-1.35146-2.46846,5.30375,5.30375,0,0,0-3.07614-.71009,6.73947,6.73947,0,0,0-5.67936,3.10983,15.46132,15.46132,0,0,0-2.56952,8.11413l-.06737,12.71016q0,1.28544.87852,1.28409l3.10983-.13474v1.757h-13.1831v-1.757l2.50214.13474a1.14033,1.14033,0,0,0,.87852-1.28409v-22.514a1.8429,1.8429,0,0,0-.23715-.94588.71764.71764,0,0,0-.64137-.40557l-2.50214.13474v-1.75838h9.60032a7.22826,7.22826,0,0,0-.3382,2.29869v3.71887a9.70361,9.70361,0,0,1,3.58413-4.83453,10.32542,10.32542,0,0,1,6.21966-1.85808,10.00051,10.00051,0,0,1,6.05124,1.62228q2.19493,1.623,2.80532,6.01621a10.69228,10.69228,0,0,1,3.81992-5.678,10.27928,10.27928,0,0,1,6.25335-1.96049q4.80016,0,6.92975,2.26365,2.13027,2.2677,2.13027,7.33668v16.56376q0,1.28544.87851,1.28409Z" transform="translate(-7.3415 -64.48183)"/>
        <path d="M367.96686,188.44864v1.757h-9.60033a18.97239,18.97239,0,0,0,.33821-4.86686v-.87987a10.12705,10.12705,0,0,1-4.09075,4.76716,12.372,12.372,0,0,1-6.52419,1.656q-4.52933,0-6.52418-2.50215-1.99485-2.50012-1.99417-8.18015V164.78534q0-1.35213-.87852-1.35145l-2.43343.13474v-1.75838h9.126v18.38952a18.49371,18.49371,0,0,0,.81115,6.52418,3.224,3.224,0,0,0,3.31329,1.9268,7.98016,7.98016,0,0,0,6.35575-2.94006,13.52263,13.52263,0,0,0,2.839-8.0791l.06737-12.77888q0-1.41882-.81115-1.41882l-3.1772.13474v-1.75838h9.86981v25.489q0,1.28544.87986,1.28409Z" transform="translate(-7.3415 -64.48183)"/>
        <path d="M404.47506,188.44864v1.757H391.292v-1.757l3.10983.13474a1.14033,1.14033,0,0,0,.87852-1.28409V171.95224a31.17122,31.17122,0,0,0-.30452-5.00295,4.88875,4.88875,0,0,0-1.2504-2.70426,4.0666,4.0666,0,0,0-2.97509-.94723,7.41119,7.41119,0,0,0-6.25335,3.2796,15.62664,15.62664,0,0,0-2.60321,8.82288v11.899q0,1.28544.87852,1.28409l3.10983-.13474v1.757H372.699v-1.757l2.50215.13474a1.14033,1.14033,0,0,0,.87852-1.28409v-22.514q0-1.148-.87852-1.35145l-2.50215.13474v-1.75838h9.533a7.4681,7.4681,0,0,0-.3382,2.36606v3.71887a11.53906,11.53906,0,0,1,4.05707-4.96927,10.56823,10.56823,0,0,1,6.08357-1.79071q4.80016,0,6.9311,2.26365,2.12825,2.2677,2.12892,7.33668v16.56376q0,1.28544.87851,1.28409Z" transform="translate(-7.3415 -64.48183)"/>
        <path d="M417.38734,187.29929q0,1.28544.87851,1.28409l2.43478-.13474v1.757h-12.508v-1.757l2.50215.13474q.87717,0,.87851-1.28409v-22.514q0-1.148-.81114-1.35145l-2.50215.13474v-1.75838h9.12739Zm-.71009-39.68675a2.85949,2.85949,0,0,1,1.04829,2.29869,2.9494,2.9494,0,0,1-1.0146,2.4011,4.08835,4.08835,0,0,1-2.70427.84483,3.9831,3.9831,0,0,1-2.63689-.84483,2.95256,2.95256,0,0,1-1.01325-2.4011,2.9,2.9,0,0,1,1.01325-2.29869,3.888,3.888,0,0,1,2.63689-.87851A4.02079,4.02079,0,0,1,416.67725,147.61254Z" transform="translate(-7.3415 -64.48183)"/>
        <path d="M434.62616,161.81025h7.43638v1.691h-7.43638v20.75557a6.85473,6.85473,0,0,0,.609,3.48172,2.40632,2.40632,0,0,0,2.1626.9122,4.04054,4.04054,0,0,0,3.51541-2.70426l1.42017.87851q-1.35213,3.78759-7.16555,3.78624-3.448,0-4.90189-1.62229-1.45521-1.623-1.45386-5.27378V163.50126H424.755v-1.691a12.884,12.884,0,0,0,4.12444-.50663,4.27749,4.27749,0,0,0,2.265-1.9268,17.1723,17.1723,0,0,0,1.5886-4.46264h1.89312Z" transform="translate(-7.3415 -64.48183)"/>
        <path d="M476.81371,161.81025v1.75838l-2.77163-.13474H473.906a1.87254,1.87254,0,0,0-1.68966,1.28408l-14.26508,34.41162a15.23181,15.23181,0,0,1-3.448,5.612,6.57084,6.57084,0,0,1-4.53,1.62228,5.22534,5.22534,0,0,1-3.07614-.87851,3.17153,3.17153,0,0,1-1.38649-2.43343,3.76046,3.76046,0,0,1,.77745-2.56952,2.62025,2.62025,0,0,1,3.41435-.43926,4.85972,4.85972,0,0,1,1.01461,1.183,4.5112,4.5112,0,0,0,.3382.50663,1.70558,1.70558,0,0,0,.60768.54166,1.65219,1.65219,0,0,0,.74377.16843,2.49923,2.49923,0,0,0,1.65732-.77746,6.21446,6.21446,0,0,0,1.45252-2.33238l3.92232-9.39687L447.74189,164.3124q-.40625-.87717-1.082-.87851l-3.31194.13474v-1.75838h14.80539v1.75838l-3.04247-.13474a.87018.87018,0,0,0-.74377.37188.70146.70146,0,0,0-.06737.77746l8.24887,18.11869,7.63984-18.25478a.9464.9464,0,0,0,.06738-.40557q0-.60836-.74378-.60768l-3.1772.13474v-1.75838Z" transform="translate(-7.3415 -64.48183)"/>
        <path d="M500.30454,154.74576q5.37416-5.5783,14.90779-5.5783a17.93137,17.93137,0,0,1,4.15813.40557q1.65529.40625,4.0894,1.21806,1.68966.60837,2.9414.94589a11.00068,11.00068,0,0,0,2.87269.3382,40.41155,40.41155,0,0,0-.26948,5.07032q0,1.42084.06737,2.53584a3.10445,3.10445,0,0,0,.20211,1.2504h-1.62228a11.91711,11.91711,0,0,0-2.50081-5.07032,14.0325,14.0325,0,0,0-4.59737-3.6515,12.56321,12.56321,0,0,0-5.67936-1.35145,10.62615,10.62615,0,0,0-6.92975,2.39974,15.18482,15.18482,0,0,0-4.53,6.795,29.984,29.984,0,0,0-1.5886,10.208,26.97723,26.97723,0,0,0,1.656,9.7701,15.04363,15.04363,0,0,0,4.69844,6.65892,11.13316,11.13316,0,0,0,7.03215,2.36606,12.80684,12.80684,0,0,0,8.24753-2.87269,12.43636,12.43636,0,0,0,4.53-7.26795H529.883a45.71312,45.71312,0,0,0-.40557,5.74672,20.1237,20.1237,0,0,0,.20211,3.17721H529.274a9.82011,9.82011,0,0,0-2.23.30451q-1.28542.30318-2.06289.574a9.64066,9.64066,0,0,1-1.11566.3382,45.51568,45.51568,0,0,1-4.66475,1.35281,19.67462,19.67462,0,0,1-4.32655.47294,21.41645,21.41645,0,0,1-10.58124-2.50215,17.04069,17.04069,0,0,1-6.92976-7.13186,23.31594,23.31594,0,0,1-2.43343-10.98682Q494.9297,160.32338,500.30454,154.74576Z" transform="translate(-7.3415 -64.48183)"/>
        <path d="M567.06759,188.44864v1.757H553.88448v-1.757l3.10983.13474a1.14033,1.14033,0,0,0,.87852-1.28409V171.95224a31.17122,31.17122,0,0,0-.30452-5.00295,4.88875,4.88875,0,0,0-1.2504-2.70426,4.0666,4.0666,0,0,0-2.97509-.94723,7.41119,7.41119,0,0,0-6.25335,3.2796,15.62671,15.62671,0,0,0-2.60321,8.82288v11.899q0,1.28544.87852,1.28409l3.10983-.13474v1.757h-13.1831v-1.757l2.50215.13474a1.14034,1.14034,0,0,0,.87851-1.28409V143.82766q0-1.42086-.87851-1.42018l-2.50215.13474v-1.68966h9.19475v27.04262a11.53913,11.53913,0,0,1,4.05707-4.96927,10.56824,10.56824,0,0,1,6.08358-1.79071q4.80016,0,6.9311,2.26365,2.12823,2.2677,2.12891,7.33668v16.56376q0,1.28544.87852,1.28409Z" transform="translate(-7.3415 -64.48183)"/>
        <path d="M601.47921,188.44864v1.757h-9.60033a18.9726,18.9726,0,0,0,.3382-4.86686v-.87987a10.127,10.127,0,0,1-4.09075,4.76716,12.37194,12.37194,0,0,1-6.52418,1.656q-4.52934,0-6.52418-2.50215-1.99485-2.50012-1.99418-8.18015V164.78534q0-1.35213-.87851-1.35145l-2.43343.13474v-1.75838h9.126v18.38952a18.494,18.494,0,0,0,.81114,6.52418,3.224,3.224,0,0,0,3.31329,1.9268,7.98018,7.98018,0,0,0,6.35576-2.94006,13.52269,13.52269,0,0,0,2.839-8.0791l.06737-12.77888q0-1.41882-.81114-1.41882l-3.17721.13474v-1.75838h9.86982v25.489q0,1.28544.87986,1.28409Z" transform="translate(-7.3415 -64.48183)"/>
        <path d="M627.33879,162.6214a5.19746,5.19746,0,0,1,1.45386,3.78623,3.2921,3.2921,0,0,1-.77746,2.36606,2.72254,2.72254,0,0,1-2.06154.81249,3.08693,3.08693,0,0,1-1.72469-.508,1.75821,1.75821,0,0,1-.77746-1.58861,5.912,5.912,0,0,1,.27083-1.55491,5.83411,5.83411,0,0,0,.26948-1.48755,1.48125,1.48125,0,0,0-.37189-.97957,1.46363,1.46363,0,0,0-1.183-.4406,4.54294,4.54294,0,0,0-3.65014,1.99552,14.817,14.817,0,0,0-2.43343,4.93558,23.83065,23.83065,0,0,0-1.01461,5.64432v11.6969q0,1.28544.87852,1.28409l4.12443-.13474v1.757h-13.8595v-1.757l2.1626.13474q.87918,0,.87986-1.28409v-22.514q0-1.35213-.87986-1.35145l-2.43343.13474v-1.75838h9.533a8.59693,8.59693,0,0,0-.27083,1.31912,12.18747,12.18747,0,0,0-.13475,1.79071v3.3133a14.26378,14.26378,0,0,1,3.48172-5.44221,6.5989,6.5989,0,0,1,4.429-1.656A5.46263,5.46263,0,0,1,627.33879,162.6214Z" transform="translate(-7.3415 -64.48183)"/>
        <path d="M649.98748,162.0474a9.88958,9.88958,0,0,1,3.85361,2.5008,5.06184,5.06184,0,0,1,1.45386,3.48307,3.74726,3.74726,0,0,1-.77746,2.39974,2.96084,2.96084,0,0,1-2.46712.97957q-2.36876,0-2.36606-2.02786a4.43285,4.43285,0,0,1,.26949-1.35145,4.04983,4.04983,0,0,0,.3382-1.55627,2.86732,2.86732,0,0,0-1.55492-2.60186,7.21564,7.21564,0,0,0-3.71886-.91354A5.95711,5.95711,0,0,0,639.67706,165.8q-1.82506,2.83966-1.82439,9.73507,0,6.82936,1.89311,10.17567a6.18571,6.18571,0,0,0,5.74673,3.34563,10.20234,10.20234,0,0,0,6.04989-1.89311,8.73922,8.73922,0,0,0,3.48172-5.34116l1.62363,1.21807a11.18612,11.18612,0,0,1-4.15812,5.74672,12.32051,12.32051,0,0,1-7.33532,2.09523q-6.35643,0-9.97222-3.88729-3.61781-3.88662-3.61781-10.716a18.162,18.162,0,0,1,1.65732-8.01173,12.3853,12.3853,0,0,1,4.66475-5.27378,12.91539,12.91539,0,0,1,6.92975-1.85808A14.41374,14.41374,0,0,1,649.98748,162.0474Z" transform="translate(-7.3415 -64.48183)"/>
        <path d="M692.00526,188.44864v1.757H678.82215v-1.757l3.10984.13474a1.14033,1.14033,0,0,0,.87851-1.28409V171.95224a31.17145,31.17145,0,0,0-.30451-5.00295,4.88882,4.88882,0,0,0-1.2504-2.70426,4.06661,4.06661,0,0,0-2.9751-.94723,7.41119,7.41119,0,0,0-6.25335,3.2796,15.62664,15.62664,0,0,0-2.6032,8.82288v11.899q0,1.28544.87851,1.28409l3.10983-.13474v1.757h-13.1831v-1.757l2.50215.13474a1.14033,1.14033,0,0,0,.87851-1.28409V143.82766q0-1.42086-.87851-1.42018l-2.50215.13474v-1.68966h9.19476v27.04262a11.53911,11.53911,0,0,1,4.05706-4.96927,10.56827,10.56827,0,0,1,6.08358-1.79071q4.80016,0,6.9311,2.26365,2.12824,2.2677,2.12892,7.33668v16.56376q0,1.28544.87851,1.28409Z" transform="translate(-7.3415 -64.48183)"/>
      </g>
    </g>
  </g>
</svg>
